<svg width="512" height="512" viewBox="0 0 512 512" fill="none" xmlns="http://www.w3.org/2000/svg">
  <defs>
    <linearGradient id="gradient1" x1="0%" y1="0%" x2="100%" y2="100%">
      <stop offset="0%" style="stop-color:#4FC3F7;stop-opacity:1" />
      <stop offset="50%" style="stop-color:#29B6F6;stop-opacity:1" />
      <stop offset="100%" style="stop-color:#03A9F4;stop-opacity:1" />
    </linearGradient>
    <linearGradient id="gradient2" x1="0%" y1="0%" x2="100%" y2="100%">
      <stop offset="0%" style="stop-color:#29B6F6;stop-opacity:1" />
      <stop offset="50%" style="stop-color:#039BE5;stop-opacity:1" />
      <stop offset="100%" style="stop-color:#0288D1;stop-opacity:1" />
    </linearGradient>
    <linearGradient id="gradient3" x1="0%" y1="0%" x2="100%" y2="100%">
      <stop offset="0%" style="stop-color:#03A9F4;stop-opacity:1" />
      <stop offset="50%" style="stop-color:#0288D1;stop-opacity:1" />
      <stop offset="100%" style="stop-color:#0277BD;stop-opacity:1" />
    </linearGradient>
  </defs>
  
  <!-- Left vertical bar -->
  <path d="M128 64 L192 64 L256 128 L256 384 L192 448 L128 448 Z" fill="url(#gradient1)"/>
  
  <!-- Right vertical bar -->
  <path d="M320 64 L384 64 L384 448 L320 448 L256 384 L256 128 Z" fill="url(#gradient1)"/>
  
  <!-- Horizontal connecting bar -->
  <path d="M192 192 L320 192 L320 256 L256 256 L256 320 L192 320 Z" fill="url(#gradient2)"/>
  
  <!-- 3D effect shadows -->
  <path d="M256 128 L320 64 L384 64 L384 128 L320 192 L256 128 Z" fill="url(#gradient3)" opacity="0.8"/>
  <path d="M192 320 L256 320 L256 384 L192 448 L128 448 L128 384 Z" fill="url(#gradient3)" opacity="0.8"/>
  <path d="M256 256 L320 192 L320 256 L256 320 Z" fill="url(#gradient3)" opacity="0.6"/>
</svg>