<svg width="512" height="512" viewBox="0 0 512 512" fill="none" xmlns="http://www.w3.org/2000/svg">
  <defs>
    <linearGradient id="shieldGradient" x1="0%" y1="0%" x2="100%" y2="100%">
      <stop offset="0%" style="stop-color:#00D4FF;stop-opacity:1" />
      <stop offset="50%" style="stop-color:#5B73FF;stop-opacity:1" />
      <stop offset="100%" style="stop-color:#B347FF;stop-opacity:1" />
    </linearGradient>
    <linearGradient id="walletGradient" x1="0%" y1="0%" x2="100%" y2="100%">
      <stop offset="0%" style="stop-color:#7C3AED;stop-opacity:1" />
      <stop offset="100%" style="stop-color:#3B82F6;stop-opacity:1" />
    </linearGradient>
  </defs>
  
  <!-- Shield Background -->
  <path d="M256 64C256 64 160 96 160 96C160 96 160 256 160 320C160 384 256 448 256 448C256 448 352 384 352 320C352 256 352 96 352 96C352 96 256 64 256 64Z" 
        fill="url(#shieldGradient)" 
        stroke="none"/>
  
  <!-- Inner Shield -->
  <path d="M256 96C256 96 192 120 192 120C192 120 192 256 192 304C192 352 256 400 256 400C256 400 320 352 320 304C320 256 320 120 320 120C320 120 256 96 256 96Z" 
        fill="#1E293B" 
        opacity="0.9"/>
  
  <!-- Wallet Icon -->
  <g transform="translate(256, 256)">
    <!-- Wallet Body -->
    <rect x="-48" y="-24" width="96" height="48" rx="8" ry="8" fill="url(#walletGradient)"/>
    
    <!-- Wallet Flap -->
    <path d="M-48 -24 L-48 -16 L-32 -16 L-32 -24 Z" fill="url(#walletGradient)" opacity="0.8"/>
    
    <!-- Arrow Up -->
    <path d="M-8 -8 L0 -16 L8 -8 L4 -8 L4 8 L-4 8 L-4 -8 Z" fill="#FFFFFF"/>
    
    <!-- Wallet Details -->
    <circle cx="24" cy="0" r="6" fill="#FFFFFF" opacity="0.3"/>
    <rect x="-32" y="-8" width="24" height="2" rx="1" fill="#FFFFFF" opacity="0.5"/>
    <rect x="-32" y="-4" width="16" height="2" rx="1" fill="#FFFFFF" opacity="0.3"/>
  </g>
  
  <!-- Glow Effect -->
  <circle cx="256" cy="256" r="200" fill="none" stroke="url(#shieldGradient)" stroke-width="2" opacity="0.3"/>
</svg>