<svg width="32" height="32" viewBox="0 0 32 32" fill="none" xmlns="http://www.w3.org/2000/svg">
  <defs>
    <linearGradient id="shieldGradient" x1="0%" y1="0%" x2="100%" y2="100%">
      <stop offset="0%" style="stop-color:#00D4FF;stop-opacity:1" />
      <stop offset="50%" style="stop-color:#5B73FF;stop-opacity:1" />
      <stop offset="100%" style="stop-color:#B347FF;stop-opacity:1" />
    </linearGradient>
    <linearGradient id="walletGradient" x1="0%" y1="0%" x2="100%" y2="100%">
      <stop offset="0%" style="stop-color:#7C3AED;stop-opacity:1" />
      <stop offset="100%" style="stop-color:#3B82F6;stop-opacity:1" />
    </linearGradient>
  </defs>
  
  <!-- Shield Background -->
  <path d="M16 4C16 4 10 6 10 6C10 6 10 16 10 20C10 24 16 28 16 28C16 28 22 24 22 20C22 16 22 6 22 6C22 6 16 4 16 4Z" 
        fill="url(#shieldGradient)" 
        stroke="none"/>
  
  <!-- Inner Shield -->
  <path d="M16 6C16 6 12 7.5 12 7.5C12 7.5 12 16 12 19C12 22 16 25 16 25C16 25 20 22 20 19C20 16 20 7.5 20 7.5C20 7.5 16 6 16 6Z" 
        fill="#1E293B" 
        opacity="0.9"/>
  
  <!-- Wallet Icon -->
  <g transform="translate(16, 16)">
    <!-- Wallet Body -->
    <rect x="-3" y="-1.5" width="6" height="3" rx="0.5" ry="0.5" fill="url(#walletGradient)"/>
    
    <!-- Arrow Up -->
    <path d="M-0.5 -0.5 L0 -1 L0.5 -0.5 L0.25 -0.5 L0.25 0.5 L-0.25 0.5 L-0.25 -0.5 Z" fill="#FFFFFF"/>
    
    <!-- Wallet Details -->
    <circle cx="1.5" cy="0" r="0.375" fill="#FFFFFF" opacity="0.3"/>
  </g>
</svg>